<svg xmlns="http://www.w3.org/2000/svg" width="480" height="336" viewBox="0 0 480 336" font-family="-apple-system,BlinkMacSystemFont,'Segoe UI',Helvetica,Arial,sans-serif">
<title>Clovis500c — Claude Code usage</title>
<rect width="480" height="336" rx="12" fill="#262624"/>
<rect x="14" y="14" width="30" height="30" rx="7" fill="#d97757"/>
<text x="29" y="34" text-anchor="middle" font-size="13" font-weight="700" font-family="Consolas,Menlo,monospace" fill="#fff">&gt;_</text>
<text x="54" y="27" font-size="15" font-weight="600" fill="#f5f4ef">Claude Code usage</text>
<text x="54" y="43" font-size="11.5" fill="#8e8d88">@Clovis500c · All time · updated Sep 22, 2026</text>
<rect x="14" y="58" width="146.66666666666666" height="46" rx="6" fill="#30302e"/>
<text x="22" y="76" font-size="11.5" fill="#8e8d88">Sessions</text>
<text x="22" y="95" font-size="15" font-weight="600" fill="#e8e6e0">64</text>
<rect x="166.66666666666666" y="58" width="146.66666666666666" height="46" rx="6" fill="#30302e"/>
<text x="174.66666666666666" y="76" font-size="11.5" fill="#8e8d88">Messages</text>
<text x="174.66666666666666" y="95" font-size="15" font-weight="600" fill="#e8e6e0">52,619</text>
<rect x="319.3333333333333" y="58" width="146.66666666666666" height="46" rx="6" fill="#30302e"/>
<text x="327.3333333333333" y="76" font-size="11.5" fill="#8e8d88">Tokens</text>
<text x="327.3333333333333" y="95" font-size="15" font-weight="600" fill="#e8e6e0">38.4M</text>
<rect x="14" y="110" width="146.66666666666666" height="46" rx="6" fill="#30302e"/>
<text x="22" y="128" font-size="11.5" fill="#8e8d88">Active days</text>
<text x="22" y="147" font-size="15" font-weight="600" fill="#e8e6e0">29</text>
<rect x="166.66666666666666" y="110" width="146.66666666666666" height="46" rx="6" fill="#30302e"/>
<text x="174.66666666666666" y="128" font-size="11.5" fill="#8e8d88">Peak hour</text>
<text x="174.66666666666666" y="147" font-size="15" font-weight="600" fill="#e8e6e0">6 AM</text>
<rect x="319.3333333333333" y="110" width="146.66666666666666" height="46" rx="6" fill="#30302e"/>
<text x="327.3333333333333" y="128" font-size="11.5" fill="#8e8d88">Favorite model</text>
<text x="327.3333333333333" y="147" font-size="15" font-weight="600" fill="#e8e6e0">Opus 5</text>
<text x="31.5" y="178" font-size="10.5" fill="#8e8d88">Apr</text>
<text x="101.4" y="178" font-size="10.5" fill="#8e8d88">May</text>
<text x="188.8" y="178" font-size="10.5" fill="#8e8d88">Jun</text>
<text x="258.7" y="178" font-size="10.5" fill="#8e8d88">Jul</text>
<text x="328.7" y="178" font-size="10.5" fill="#8e8d88">Aug</text>
<text x="416.1" y="178" font-size="10.5" fill="#8e8d88">Sep</text>
<rect x="14.0" y="184.0" width="15.0" height="15.0" rx="2.5" fill="#363634"/>
<rect x="14.0" y="201.5" width="15.0" height="15.0" rx="2.5" fill="#363634"/>
<rect x="14.0" y="219.0" width="15.0" height="15.0" rx="2.5" fill="#363634"/>
<rect x="14.0" y="236.4" width="15.0" height="15.0" rx="2.5" fill="#363634"/>
<rect x="14.0" y="253.9" width="15.0" height="15.0" rx="2.5" fill="#363634"/>
<rect x="14.0" y="271.4" width="15.0" height="15.0" rx="2.5" fill="#363634"/>
<rect x="14.0" y="288.9" width="15.0" height="15.0" rx="2.5" fill="#363634"/>
<rect x="31.5" y="184.0" width="15.0" height="15.0" rx="2.5" fill="#363634"/>
<rect x="31.5" y="201.5" width="15.0" height="15.0" rx="2.5" fill="#363634"/>
<rect x="31.5" y="219.0" width="15.0" height="15.0" rx="2.5" fill="#363634"/>
<rect x="31.5" y="236.4" width="15.0" height="15.0" rx="2.5" fill="#363634"/>
<rect x="31.5" y="253.9" width="15.0" height="15.0" rx="2.5" fill="#363634"/>
<rect x="31.5" y="271.4" width="15.0" height="15.0" rx="2.5" fill="#363634"/>
<rect x="31.5" y="288.9" width="15.0" height="15.0" rx="2.5" fill="#363634"/>
<rect x="49.0" y="184.0" width="15.0" height="15.0" rx="2.5" fill="#363634"/>
<rect x="49.0" y="201.5" width="15.0" height="15.0" rx="2.5" fill="#363634"/>
<rect x="49.0" y="219.0" width="15.0" height="15.0" rx="2.5" fill="#363634"/>
<rect x="49.0" y="236.4" width="15.0" height="15.0" rx="2.5" fill="#363634"/>
<rect x="49.0" y="253.9" width="15.0" height="15.0" rx="2.5" fill="#363634"/>
<rect x="49.0" y="271.4" width="15.0" height="15.0" rx="2.5" fill="#363634"/>
<rect x="49.0" y="288.9" width="15.0" height="15.0" rx="2.5" fill="#363634"/>
<rect x="66.4" y="184.0" width="15.0" height="15.0" rx="2.5" fill="#363634"/>
<rect x="66.4" y="201.5" width="15.0" height="15.0" rx="2.5" fill="#363634"/>
<rect x="66.4" y="219.0" width="15.0" height="15.0" rx="2.5" fill="#363634"/>
<rect x="66.4" y="236.4" width="15.0" height="15.0" rx="2.5" fill="#363634"/>
<rect x="66.4" y="253.9" width="15.0" height="15.0" rx="2.5" fill="#363634"/>
<rect x="66.4" y="271.4" width="15.0" height="15.0" rx="2.5" fill="#363634"/>
<rect x="66.4" y="288.9" width="15.0" height="15.0" rx="2.5" fill="#363634"/>
<rect x="83.9" y="184.0" width="15.0" height="15.0" rx="2.5" fill="#363634"/>
<rect x="83.9" y="201.5" width="15.0" height="15.0" rx="2.5" fill="#363634"/>
<rect x="83.9" y="219.0" width="15.0" height="15.0" rx="2.5" fill="#363634"/>
<rect x="83.9" y="236.4" width="15.0" height="15.0" rx="2.5" fill="#363634"/>
<rect x="83.9" y="253.9" width="15.0" height="15.0" rx="2.5" fill="#363634"/>
<rect x="83.9" y="271.4" width="15.0" height="15.0" rx="2.5" fill="#363634"/>
<rect x="83.9" y="288.9" width="15.0" height="15.0" rx="2.5" fill="#363634"/>
<rect x="101.4" y="184.0" width="15.0" height="15.0" rx="2.5" fill="#363634"/>
<rect x="101.4" y="201.5" width="15.0" height="15.0" rx="2.5" fill="#363634"/>
<rect x="101.4" y="219.0" width="15.0" height="15.0" rx="2.5" fill="#363634"/>
<rect x="101.4" y="236.4" width="15.0" height="15.0" rx="2.5" fill="#363634"/>
<rect x="101.4" y="253.9" width="15.0" height="15.0" rx="2.5" fill="#363634"/>
<rect x="101.4" y="271.4" width="15.0" height="15.0" rx="2.5" fill="#363634"/>
<rect x="101.4" y="288.9" width="15.0" height="15.0" rx="2.5" fill="#363634"/>
<rect x="118.9" y="184.0" width="15.0" height="15.0" rx="2.5" fill="#363634"/>
<rect x="118.9" y="201.5" width="15.0" height="15.0" rx="2.5" fill="#363634"/>
<rect x="118.9" y="219.0" width="15.0" height="15.0" rx="2.5" fill="#363634"/>
<rect x="118.9" y="236.4" width="15.0" height="15.0" rx="2.5" fill="#363634"/>
<rect x="118.9" y="253.9" width="15.0" height="15.0" rx="2.5" fill="#363634"/>
<rect x="118.9" y="271.4" width="15.0" height="15.0" rx="2.5" fill="#363634"/>
<rect x="118.9" y="288.9" width="15.0" height="15.0" rx="2.5" fill="#363634"/>
<rect x="136.4" y="184.0" width="15.0" height="15.0" rx="2.5" fill="#363634"/>
<rect x="136.4" y="201.5" width="15.0" height="15.0" rx="2.5" fill="#363634"/>
<rect x="136.4" y="219.0" width="15.0" height="15.0" rx="2.5" fill="#363634"/>
<rect x="136.4" y="236.4" width="15.0" height="15.0" rx="2.5" fill="#363634"/>
<rect x="136.4" y="253.9" width="15.0" height="15.0" rx="2.5" fill="#363634"/>
<rect x="136.4" y="271.4" width="15.0" height="15.0" rx="2.5" fill="#363634"/>
<rect x="136.4" y="288.9" width="15.0" height="15.0" rx="2.5" fill="#363634"/>
<rect x="153.8" y="184.0" width="15.0" height="15.0" rx="2.5" fill="#363634"/>
<rect x="153.8" y="201.5" width="15.0" height="15.0" rx="2.5" fill="#363634"/>
<rect x="153.8" y="219.0" width="15.0" height="15.0" rx="2.5" fill="#363634"/>
<rect x="153.8" y="236.4" width="15.0" height="15.0" rx="2.5" fill="#363634"/>
<rect x="153.8" y="253.9" width="15.0" height="15.0" rx="2.5" fill="#363634"/>
<rect x="153.8" y="271.4" width="15.0" height="15.0" rx="2.5" fill="#363634"/>
<rect x="153.8" y="288.9" width="15.0" height="15.0" rx="2.5" fill="#363634"/>
<rect x="171.3" y="184.0" width="15.0" height="15.0" rx="2.5" fill="#363634"/>
<rect x="171.3" y="201.5" width="15.0" height="15.0" rx="2.5" fill="#363634"/>
<rect x="171.3" y="219.0" width="15.0" height="15.0" rx="2.5" fill="#363634"/>
<rect x="171.3" y="236.4" width="15.0" height="15.0" rx="2.5" fill="#363634"/>
<rect x="171.3" y="253.9" width="15.0" height="15.0" rx="2.5" fill="#363634"/>
<rect x="171.3" y="271.4" width="15.0" height="15.0" rx="2.5" fill="#363634"/>
<rect x="171.3" y="288.9" width="15.0" height="15.0" rx="2.5" fill="#363634"/>
<rect x="188.8" y="184.0" width="15.0" height="15.0" rx="2.5" fill="#363634"/>
<rect x="188.8" y="201.5" width="15.0" height="15.0" rx="2.5" fill="#363634"/>
<rect x="188.8" y="219.0" width="15.0" height="15.0" rx="2.5" fill="#363634"/>
<rect x="188.8" y="236.4" width="15.0" height="15.0" rx="2.5" fill="#363634"/>
<rect x="188.8" y="253.9" width="15.0" height="15.0" rx="2.5" fill="#363634"/>
<rect x="188.8" y="271.4" width="15.0" height="15.0" rx="2.5" fill="#363634"/>
<rect x="188.8" y="288.9" width="15.0" height="15.0" rx="2.5" fill="#363634"/>
<rect x="206.3" y="184.0" width="15.0" height="15.0" rx="2.5" fill="#363634"/>
<rect x="206.3" y="201.5" width="15.0" height="15.0" rx="2.5" fill="#363634"/>
<rect x="206.3" y="219.0" width="15.0" height="15.0" rx="2.5" fill="#363634"/>
<rect x="206.3" y="236.4" width="15.0" height="15.0" rx="2.5" fill="#363634"/>
<rect x="206.3" y="253.9" width="15.0" height="15.0" rx="2.5" fill="#363634"/>
<rect x="206.3" y="271.4" width="15.0" height="15.0" rx="2.5" fill="#363634"/>
<rect x="206.3" y="288.9" width="15.0" height="15.0" rx="2.5" fill="#363634"/>
<rect x="223.8" y="184.0" width="15.0" height="15.0" rx="2.5" fill="#363634"/>
<rect x="223.8" y="201.5" width="15.0" height="15.0" rx="2.5" fill="#363634"/>
<rect x="223.8" y="219.0" width="15.0" height="15.0" rx="2.5" fill="#363634"/>
<rect x="223.8" y="236.4" width="15.0" height="15.0" rx="2.5" fill="#363634"/>
<rect x="223.8" y="253.9" width="15.0" height="15.0" rx="2.5" fill="#363634"/>
<rect x="223.8" y="271.4" width="15.0" height="15.0" rx="2.5" fill="#363634"/>
<rect x="223.8" y="288.9" width="15.0" height="15.0" rx="2.5" fill="#363634"/>
<rect x="241.3" y="184.0" width="15.0" height="15.0" rx="2.5" fill="#8db3f4"/>
<rect x="241.3" y="201.5" width="15.0" height="15.0" rx="2.5" fill="#8db3f4"/>
<rect x="241.3" y="219.0" width="15.0" height="15.0" rx="2.5" fill="#8db3f4"/>
<rect x="241.3" y="236.4" width="15.0" height="15.0" rx="2.5" fill="#8db3f4"/>
<rect x="241.3" y="253.9" width="15.0" height="15.0" rx="2.5" fill="#8db3f4"/>
<rect x="241.3" y="271.4" width="15.0" height="15.0" rx="2.5" fill="#8db3f4"/>
<rect x="241.3" y="288.9" width="15.0" height="15.0" rx="2.5" fill="#363634"/>
<rect x="258.7" y="184.0" width="15.0" height="15.0" rx="2.5" fill="#363634"/>
<rect x="258.7" y="201.5" width="15.0" height="15.0" rx="2.5" fill="#363634"/>
<rect x="258.7" y="219.0" width="15.0" height="15.0" rx="2.5" fill="#363634"/>
<rect x="258.7" y="236.4" width="15.0" height="15.0" rx="2.5" fill="#363634"/>
<rect x="258.7" y="253.9" width="15.0" height="15.0" rx="2.5" fill="#363634"/>
<rect x="258.7" y="271.4" width="15.0" height="15.0" rx="2.5" fill="#363634"/>
<rect x="258.7" y="288.9" width="15.0" height="15.0" rx="2.5" fill="#363634"/>
<rect x="276.2" y="184.0" width="15.0" height="15.0" rx="2.5" fill="#363634"/>
<rect x="276.2" y="201.5" width="15.0" height="15.0" rx="2.5" fill="#363634"/>
<rect x="276.2" y="219.0" width="15.0" height="15.0" rx="2.5" fill="#363634"/>
<rect x="276.2" y="236.4" width="15.0" height="15.0" rx="2.5" fill="#363634"/>
<rect x="276.2" y="253.9" width="15.0" height="15.0" rx="2.5" fill="#363634"/>
<rect x="276.2" y="271.4" width="15.0" height="15.0" rx="2.5" fill="#363634"/>
<rect x="276.2" y="288.9" width="15.0" height="15.0" rx="2.5" fill="#363634"/>
<rect x="293.7" y="184.0" width="15.0" height="15.0" rx="2.5" fill="#8db3f4"/>
<rect x="293.7" y="201.5" width="15.0" height="15.0" rx="2.5" fill="#363634"/>
<rect x="293.7" y="219.0" width="15.0" height="15.0" rx="2.5" fill="#363634"/>
<rect x="293.7" y="236.4" width="15.0" height="15.0" rx="2.5" fill="#363634"/>
<rect x="293.7" y="253.9" width="15.0" height="15.0" rx="2.5" fill="#363634"/>
<rect x="293.7" y="271.4" width="15.0" height="15.0" rx="2.5" fill="#363634"/>
<rect x="293.7" y="288.9" width="15.0" height="15.0" rx="2.5" fill="#363634"/>
<rect x="311.2" y="184.0" width="15.0" height="15.0" rx="2.5" fill="#363634"/>
<rect x="311.2" y="201.5" width="15.0" height="15.0" rx="2.5" fill="#363634"/>
<rect x="311.2" y="219.0" width="15.0" height="15.0" rx="2.5" fill="#363634"/>
<rect x="311.2" y="236.4" width="15.0" height="15.0" rx="2.5" fill="#363634"/>
<rect x="311.2" y="253.9" width="15.0" height="15.0" rx="2.5" fill="#363634"/>
<rect x="311.2" y="271.4" width="15.0" height="15.0" rx="2.5" fill="#363634"/>
<rect x="311.2" y="288.9" width="15.0" height="15.0" rx="2.5" fill="#363634"/>
<rect x="328.7" y="184.0" width="15.0" height="15.0" rx="2.5" fill="#363634"/>
<rect x="328.7" y="201.5" width="15.0" height="15.0" rx="2.5" fill="#363634"/>
<rect x="328.7" y="219.0" width="15.0" height="15.0" rx="2.5" fill="#363634"/>
<rect x="328.7" y="236.4" width="15.0" height="15.0" rx="2.5" fill="#363634"/>
<rect x="328.7" y="253.9" width="15.0" height="15.0" rx="2.5" fill="#363634"/>
<rect x="328.7" y="271.4" width="15.0" height="15.0" rx="2.5" fill="#363634"/>
<rect x="328.7" y="288.9" width="15.0" height="15.0" rx="2.5" fill="#363634"/>
<rect x="346.1" y="184.0" width="15.0" height="15.0" rx="2.5" fill="#363634"/>
<rect x="346.1" y="201.5" width="15.0" height="15.0" rx="2.5" fill="#363634"/>
<rect x="346.1" y="219.0" width="15.0" height="15.0" rx="2.5" fill="#363634"/>
<rect x="346.1" y="236.4" width="15.0" height="15.0" rx="2.5" fill="#363634"/>
<rect x="346.1" y="253.9" width="15.0" height="15.0" rx="2.5" fill="#363634"/>
<rect x="346.1" y="271.4" width="15.0" height="15.0" rx="2.5" fill="#363634"/>
<rect x="346.1" y="288.9" width="15.0" height="15.0" rx="2.5" fill="#8db3f4"/>
<rect x="363.6" y="184.0" width="15.0" height="15.0" rx="2.5" fill="#363634"/>
<rect x="363.6" y="201.5" width="15.0" height="15.0" rx="2.5" fill="#363634"/>
<rect x="363.6" y="219.0" width="15.0" height="15.0" rx="2.5" fill="#8db3f4"/>
<rect x="363.6" y="236.4" width="15.0" height="15.0" rx="2.5" fill="#8db3f4"/>
<rect x="363.6" y="253.9" width="15.0" height="15.0" rx="2.5" fill="#363634"/>
<rect x="363.6" y="271.4" width="15.0" height="15.0" rx="2.5" fill="#8db3f4"/>
<rect x="363.6" y="288.9" width="15.0" height="15.0" rx="2.5" fill="#8db3f4"/>
<rect x="381.1" y="184.0" width="15.0" height="15.0" rx="2.5" fill="#2563d9"/>
<rect x="381.1" y="201.5" width="15.0" height="15.0" rx="2.5" fill="#6f9ef0"/>
<rect x="381.1" y="219.0" width="15.0" height="15.0" rx="2.5" fill="#8db3f4"/>
<rect x="381.1" y="236.4" width="15.0" height="15.0" rx="2.5" fill="#8db3f4"/>
<rect x="381.1" y="253.9" width="15.0" height="15.0" rx="2.5" fill="#8db3f4"/>
<rect x="381.1" y="271.4" width="15.0" height="15.0" rx="2.5" fill="#8db3f4"/>
<rect x="381.1" y="288.9" width="15.0" height="15.0" rx="2.5" fill="#363634"/>
<rect x="398.6" y="184.0" width="15.0" height="15.0" rx="2.5" fill="#363634"/>
<rect x="398.6" y="201.5" width="15.0" height="15.0" rx="2.5" fill="#363634"/>
<rect x="398.6" y="219.0" width="15.0" height="15.0" rx="2.5" fill="#363634"/>
<rect x="398.6" y="236.4" width="15.0" height="15.0" rx="2.5" fill="#363634"/>
<rect x="398.6" y="253.9" width="15.0" height="15.0" rx="2.5" fill="#363634"/>
<rect x="398.6" y="271.4" width="15.0" height="15.0" rx="2.5" fill="#8db3f4"/>
<rect x="398.6" y="288.9" width="15.0" height="15.0" rx="2.5" fill="#6f9ef0"/>
<rect x="416.1" y="184.0" width="15.0" height="15.0" rx="2.5" fill="#6f9ef0"/>
<rect x="416.1" y="201.5" width="15.0" height="15.0" rx="2.5" fill="#6f9ef0"/>
<rect x="416.1" y="219.0" width="15.0" height="15.0" rx="2.5" fill="#8db3f4"/>
<rect x="416.1" y="236.4" width="15.0" height="15.0" rx="2.5" fill="#8db3f4"/>
<rect x="416.1" y="253.9" width="15.0" height="15.0" rx="2.5" fill="#363634"/>
<rect x="416.1" y="271.4" width="15.0" height="15.0" rx="2.5" fill="#363634"/>
<rect x="416.1" y="288.9" width="15.0" height="15.0" rx="2.5" fill="#363634"/>
<rect x="433.5" y="184.0" width="15.0" height="15.0" rx="2.5" fill="#363634"/>
<rect x="433.5" y="201.5" width="15.0" height="15.0" rx="2.5" fill="#363634"/>
<rect x="433.5" y="219.0" width="15.0" height="15.0" rx="2.5" fill="#363634"/>
<rect x="433.5" y="236.4" width="15.0" height="15.0" rx="2.5" fill="#363634"/>
<rect x="433.5" y="253.9" width="15.0" height="15.0" rx="2.5" fill="#363634"/>
<rect x="433.5" y="271.4" width="15.0" height="15.0" rx="2.5" fill="#8db3f4"/>
<rect x="433.5" y="288.9" width="15.0" height="15.0" rx="2.5" fill="#8db3f4"/>
<rect x="451.0" y="184.0" width="15.0" height="15.0" rx="2.5" fill="#6f9ef0"/>
<rect x="451.0" y="201.5" width="15.0" height="15.0" rx="2.5" fill="#8db3f4"/>
<rect x="451.0" y="219.0" width="15.0" height="15.0" rx="2.5" fill="#8db3f4"/>
<text x="14" y="322.36538461538464" font-size="11" fill="#8e8d88">≈ 620× The Great Gatsby, in tokens</text>
<text x="466" y="322.36538461538464" text-anchor="end" font-size="11" fill="#8e8d88">More</text>
<rect x="427.8" y="313.36538461538464" width="10" height="10" rx="2" fill="#2563d9"/>
<rect x="414.8" y="313.36538461538464" width="10" height="10" rx="2" fill="#4f86e8"/>
<rect x="401.8" y="313.36538461538464" width="10" height="10" rx="2" fill="#6f9ef0"/>
<rect x="388.8" y="313.36538461538464" width="10" height="10" rx="2" fill="#8db3f4"/>
<rect x="375.8" y="313.36538461538464" width="10" height="10" rx="2" fill="#363634"/>
<text x="369.8" y="322.36538461538464" text-anchor="end" font-size="11" fill="#8e8d88">Less</text>
</svg>
